/vscmnt/brussel_pixiu_data/_data_brussel/112/vsc11236/PredSimResults/SUBJ09mtu3D/worker6.mot
version=1
nRows=5
nColumns=50
inDegrees=yes
endheader
                time	         pelvis_tilt	         pelvis_list	     pelvis_rotation	           pelvis_tx	           pelvis_ty	           pelvis_tz	       hip_flexion_r	     hip_adduction_r	      hip_rotation_r	        knee_angle_r	       ankle_angle_r	         mtp_angle_r	       hip_flexion_l	     hip_adduction_l	      hip_rotation_l	        knee_angle_l	       ankle_angle_l	         mtp_angle_l	    lumbar_extension	      lumbar_bending	     lumbar_rotation	 ercspn_r/activation	 intobl_r/activation	 extobl_r/activation	    abd_r/activation	    add_r/activation	hamstrings_r/activation	bifemsh_r/activation	glut_max_r/activation	iliopsoas_r/activation	rect_fem_r/activation	  vasti_r/activation	gastroc_r/activation	 soleus_r/activation	tib_ant_r/activation	 ercspn_l/activation	 intobl_l/activation	 extobl_l/activation	    abd_l/activation	    add_l/activation	hamstrings_l/activation	bifemsh_l/activation	glut_max_l/activation	iliopsoas_l/activation	rect_fem_l/activation	  vasti_l/activation	gastroc_l/activation	 soleus_l/activation	tib_ant_l/activation	
          0.00000000	         -4.17352802	         -2.70184547	          8.46986194	          0.00000000	          0.98590149	         -0.00629202	         27.79881916	          0.57771744	         -5.49675334	         -3.17938349	          3.85913862	          0.26111588	        -13.56618661	         -3.49061590	          3.70262008	         -8.76481343	         10.67209876	         28.24461164	        -13.45428741	          1.32794101	         -2.44354379	          0.04740536	          0.15474928	          0.02953614	          0.03516647	          0.11869115	          0.12252510	          0.22474493	          0.07917514	          0.14014653	          0.01314708	          0.01000020	          0.01003035	          0.01000026	          0.31008410	          0.03339808	          0.01000032	          0.01000043	          0.04325541	          0.01966757	          0.01575666	          0.15448065	          0.02055210	          0.28534565	          0.01000323	          0.01000034	          0.38603422	          0.27548904	          0.01000006	
          0.01205369	         -4.13862327	         -2.77185047	          8.40581040	          0.01906463	          0.98364225	         -0.00597772	         27.78748924	          0.78895878	         -5.48976571	         -5.09763936	          3.39049946	          0.21196320	        -14.14866704	         -3.65876189	          3.24833554	         -9.81391428	          9.90930970	         30.06109472	        -13.04690784	          1.70802244	         -2.45166060	          0.03947527	          0.12886170	          0.02459512	          0.09201898	          0.10212142	          0.10202838	          0.18714809	          0.11131696	          0.11670176	          0.01095014	          0.01000011	          0.01200997	          0.01200928	          0.35524095	          0.02781364	          0.01000025	          0.01000060	          0.03601933	          0.01637794	          0.02382822	          0.12863809	          0.02080119	          0.28755964	          0.01000113	          0.01073618	          0.35750751	          0.25238762	          0.01000007	
          0.02410739	         -4.09437983	         -2.84398756	          8.30076220	          0.03823825	          0.98186020	         -0.00559331	         27.66565486	          1.00444920	         -5.49033943	         -6.84911584	          2.81692783	          0.20040151	        -14.47984411	         -3.80991252	          2.76240616	        -11.32286452	          8.97310517	         31.93936789	        -12.64253578	          2.09329100	         -2.44099932	          0.03288660	          0.10730477	          0.02048068	          0.15195155	          0.12732675	          0.08496036	          0.15584072	          0.13932682	          0.09717902	          0.01000744	          0.01000011	          0.01000096	          0.01000037	          0.42067245	          0.06318669	          0.01000022	          0.01000042	          0.02999376	          0.01488356	          0.01986345	          0.10711866	          0.01732154	          0.31080225	          0.01000495	          0.01556235	          0.32449208	          0.21016696	          0.01000010	
          0.03616108	         -4.04263087	         -2.90908910	          8.15581007	          0.05721535	          0.98076776	         -0.00512928	         27.54126437	          1.22260462	         -5.50179999	         -8.59077535	          2.26650873	          0.16251443	        -14.46137925	         -3.93394869	          2.26341254	        -13.42363300	          7.84529444	         33.79198801	        -12.27682242	          2.47356317	         -2.41035995	          0.04702627	          0.08935403	          0.01705453	          0.19342586	          0.17105775	          0.07074759	          0.12977063	          0.16472213	          0.08092218	          0.01001115	          0.01457461	          0.01000082	          0.01000099	          0.43696295	          0.08122532	          0.01000019	          0.01000026	          0.02497618	          0.04715024	          0.01654133	          0.08919920	          0.01442392	          0.32431535	          0.01001867	          0.01295912	          0.27020899	          0.17500868	          0.01000006	
          0.04821478	         -3.98358136	         -2.96354014	          7.97141746	          0.07578413	          0.98045177	         -0.00461174	         27.45021268	          1.43306188	         -5.52811089	        -10.40534202	          1.93066475	          0.13095151	        -13.99576533	         -4.02681349	          1.76026842	        -16.26892106	          6.56759068	         35.40086307	        -11.97144110	          2.84886401	         -2.35516114	          0.04472687	          0.07440623	          0.01420154	          0.21516416	          0.19220569	          0.05891249	          0.10806178	          0.17721825	          0.06738492	          0.01001164	          0.06417308	          0.01000065	          0.01000069	          0.43490653	          0.11738019	          0.01000017	          0.01000025	          0.02079799	          0.08931764	          0.01377493	          0.07427755	          0.01201101	          0.29957867	          0.01000068	          0.01079127	          0.22500639	          0.14573192	          0.01000025	
